<svg xmlns="http://www.w3.org/2000/svg" width="44.959" height="46" viewBox="0 0 44.959 46">
  <g id="Group_1" data-name="Group 1" transform="translate(-9.521 -9)">
    <path id="Path_1" data-name="Path 1" d="M10.521,26h6.334a1,1,0,0,0,1-1V21a1,1,0,0,0-1-1H10.521a1,1,0,0,0-1,1v4A1,1,0,0,0,10.521,26Z" fill="#fff"/>
    <path id="Path_2" data-name="Path 2" d="M10.521,35h6.334a1,1,0,0,0,1-1V30a1,1,0,0,0-1-1H10.521a1,1,0,0,0-1,1v4A1,1,0,0,0,10.521,35Z" fill="#fff"/>
    <path id="Path_3" data-name="Path 3" d="M17.854,43V39a1,1,0,0,0-1-1H10.521a1,1,0,0,0-1,1v4a1,1,0,0,0,1,1h6.334A1,1,0,0,0,17.854,43Z" fill="#fff"/>
    <path id="Path_4" data-name="Path 4" d="M46.069,39.083,42.54,36.618a1.209,1.209,0,0,0-1.642.291l-1.121,1.607a1,1,0,0,1-1.353.274,30.615,30.615,0,0,1-5.07-4.165,30.582,30.582,0,0,1-4.165-5.071,1,1,0,0,1,.274-1.352l1.605-1.121a1.183,1.183,0,0,0,.292-1.645L28.9,21.91a1.2,1.2,0,0,0-.959-.518,1,1,0,0,0-.351.063,3.4,3.4,0,0,0-.613.3l-.419.3c-.031.026-.1.088-.163.153a3.378,3.378,0,0,0-.853,1.541c-.864,3.242,1.547,8.521,5.862,12.836,3.663,3.663,8.155,6.03,11.444,6.03h0a5.418,5.418,0,0,0,1.392-.168,3.369,3.369,0,0,0,1.542-.854,2.272,2.272,0,0,0,.181-.2l.3-.426a3.368,3.368,0,0,0,.265-.564A1.15,1.15,0,0,0,46.069,39.083Z" fill="#fff"/>
    <path id="Path_5" data-name="Path 5" d="M49.479,9H18.229a5.006,5.006,0,0,0-5,5v4h3.625a3,3,0,0,1,3,3v4a3,3,0,0,1-1.348,2.5A3,3,0,0,1,19.854,30v4a3,3,0,0,1-1.348,2.5A3,3,0,0,1,19.854,39v4a3,3,0,0,1-3,3H13.229v4a5.006,5.006,0,0,0,5,5h31.25a5.006,5.006,0,0,0,5-5V14A5.006,5.006,0,0,0,49.479,9ZM48.4,41.088a5.288,5.288,0,0,1-.475.976l-.356.51a4.072,4.072,0,0,1-.374.425,5.342,5.342,0,0,1-2.44,1.373,7.41,7.41,0,0,1-1.907.236h0c-3.852,0-8.778-2.535-12.858-6.616-4.872-4.872-7.437-10.806-6.38-14.767a5.342,5.342,0,0,1,1.372-2.441,4.228,4.228,0,0,1,.384-.342l.507-.358a5.425,5.425,0,0,1,1.022-.5,3.182,3.182,0,0,1,3.643,1.186L33,24.293a3.184,3.184,0,0,1-.788,4.429l-.8.56a30.734,30.734,0,0,0,3.357,3.929A30.8,30.8,0,0,0,38.7,36.568l.561-.8a3.178,3.178,0,0,1,4.427-.788l3.53,2.466A3.133,3.133,0,0,1,48.4,41.088Z" fill="#fff"/>
  </g>
</svg>
